<svg width="40" height="40" viewBox="0 0 40 40" fill="none" xmlns="http://www.w3.org/2000/svg">
<path d="M33.6764 17.0079C33.7497 17.3394 33.7361 17.6842 33.6367 18.0089C33.5373 18.3336 33.3556 18.627 33.1092 18.8606L17.8699 33.4725C17.613 33.7191 17.295 33.8926 16.9486 33.9751C16.6023 34.0576 16.2402 34.0462 15.8997 33.9419C15.5627 33.8398 15.259 33.6496 15.0199 33.3912C14.7807 33.1327 14.6147 32.8152 14.539 32.4713L9.83034 10.9478C9.75558 10.6037 9.77383 10.2459 9.88321 9.91114C9.9926 9.57642 10.1892 9.27687 10.4527 9.0433C10.7185 8.80645 11.0428 8.64486 11.392 8.57522C11.7411 8.50558 12.1026 8.53042 12.4389 8.64716L32.3874 15.5612C32.7088 15.6706 32.9965 15.8613 33.2223 16.1148C33.4482 16.3683 33.6046 16.676 33.6764 17.0079Z" fill="#AEACEB"/>
</svg>
