<svg width="43" height="43" viewBox="0 0 43 43" fill="none" xmlns="http://www.w3.org/2000/svg">
    <path
        d="M40.3128 21.4998C40.3171 22.051 40.1496 22.5898 39.8335 23.0413C39.5174 23.4929 39.0685 23.8347 38.5492 24.0194L27.8932 27.8944L24.0199 38.5487C23.829 39.063 23.4852 39.5066 23.0348 39.8198C22.5844 40.1331 22.049 40.301 21.5003 40.301C20.9517 40.301 20.4162 40.1331 19.9659 39.8198C19.5155 39.5066 19.1717 39.063 18.9808 38.5487L15.1074 27.8927L4.45151 24.0194C3.93718 23.8285 3.4936 23.4847 3.18036 23.0343C2.86712 22.5839 2.69922 22.0485 2.69922 21.4998C2.69922 20.9512 2.86712 20.4158 3.18036 19.9654C3.4936 19.515 3.93718 19.1712 4.45151 18.9803L15.1074 15.107L18.9808 4.45102C19.1717 3.93669 19.5155 3.49311 19.9659 3.17987C20.4162 2.86663 20.9517 2.69873 21.5003 2.69873C22.049 2.69873 22.5844 2.86663 23.0348 3.17987C23.4852 3.49311 23.829 3.93669 24.0199 4.45102L27.8949 15.107L38.5492 18.9803C39.0685 19.165 39.5174 19.5068 39.8335 19.9583C40.1496 20.4099 40.3171 20.9487 40.3128 21.4998Z"
        fill="#F3B675" />
</svg>